<svg width="660" height="235" fill="none" xmlns="http://www.w3.org/2000/svg"><path d="M0 191.75V146.9L103.009 0h62.261v143.65H192v48.1h-26.73V234h-55.742v-42.25H0ZM113.44 61.1l-54.764 82.55h54.764V61.1ZM468 191.75V146.9L571.009 0h62.261v143.65H660v48.1h-26.73V234h-55.742v-42.25H468ZM581.44 61.1l-54.764 82.55h54.764V61.1Z" fill="#272557"/><path d="M329.97 0C265.685 0 213 52.779 213 117.179c0 29.537 10.634 56.169 28.517 76.99 4.351-1.453 9.184-2.421 14.018-2.421 22.233 0 40.117 16.947 42.534 38.252 10.15 2.905 20.784 4.358 31.901 4.358 64.768 0 116.97-52.779 116.97-117.179C447.423 52.779 394.738 0 329.97 0Zm0 179.642c-34.318 0-61.868-27.6-61.868-61.979s27.55-61.979 61.868-61.979 61.868 27.6 61.868 61.979c0 33.895-27.55 61.979-61.868 61.979Z" fill="#1565C0"/></svg>