<svg width="138" height="30" fill="none" xmlns="http://www.w3.org/2000/svg"><g clip-path="url(#a)"><path d="M12.77 0C5.753 0 0 5.707 0 12.67c0 3.194 1.161 6.074 3.114 8.325a4.937 4.937 0 0 1 1.53-.262 4.672 4.672 0 0 1 4.644 4.136 12.72 12.72 0 0 0 3.483.471c7.071 0 12.77-5.706 12.77-12.67C25.596 5.707 19.843 0 12.772 0Zm0 19.424c-3.746 0-6.754-2.984-6.754-6.701 0-3.718 3.008-6.702 6.755-6.702s6.755 2.984 6.755 6.702c0 3.664-3.008 6.701-6.755 6.701Z" fill="#1565C0"/><path d="M3.114 20.995A4.67 4.67 0 0 0 0 25.393C0 27.958 2.11 30 4.644 30c2.586 0 4.644-2.094 4.644-4.607v-.471c-2.428-.681-4.538-2.095-6.174-3.927Z" fill="url(#b)"/><path d="M40.582 19.581v5.393H36.15V5.602h8.391c4.433 0 6.966 3.09 6.966 6.859 0 3.979-2.744 7.12-7.335 7.12h-3.589Zm0-9.948v5.969h3.483c1.9 0 3.008-1.204 3.008-2.984s-1.108-2.932-3.166-2.932h-3.325v-.053Zm13.193 15.393V10.471h3.958v1.99c1.003-1.31 2.428-2.2 4.275-2.2v3.98c-2.956 0-4.222 1.623-4.222 4.136v6.65h-4.01Zm24.856-7.225c0 4.189-3.377 7.54-7.863 7.54-4.486 0-7.863-3.3-7.863-7.54s3.377-7.592 7.863-7.592c4.486 0 7.863 3.351 7.863 7.592Zm-11.821 0c0 2.304 1.636 4.031 3.852 4.031 2.217 0 4.011-1.727 4.011-4.031 0-2.356-1.689-4.031-3.958-4.031-2.27 0-3.905 1.675-3.905 4.031Zm17.679-5.864c.739-.838 2.216-1.728 4.274-1.728 3.43 0 5.647 2.356 5.647 5.864v8.9h-3.958v-8.22c0-1.727-.95-2.931-2.691-2.931-1.953 0-3.22 1.204-3.22 3.246v7.906h-3.957V10.47h3.905v1.466Zm20.634 12.566C103.751 28.377 102.009 30 98.368 30h-1.425v-3.56h1.214c1.32 0 2.163-.733 2.691-1.885l-5.435-14.136h4.538l3.008 8.953 2.955-8.953h4.117l-4.908 14.084Zm4.697.523v-4.084h4.116v4.084h-4.116Zm6.438-15.811V5.602h3.958v3.613h-3.958Zm0 15.811V10.471h3.958v14.503h-3.958v.052ZM138 17.801c0 4.189-3.377 7.54-7.863 7.54-4.486 0-7.863-3.3-7.863-7.54s3.377-7.592 7.863-7.592c4.486 0 7.863 3.351 7.863 7.592Zm-11.821 0c0 2.304 1.636 4.031 3.852 4.031 2.217 0 4.011-1.727 4.011-4.031 0-2.356-1.689-4.031-3.958-4.031s-3.905 1.675-3.905 4.031Z" fill="var(--blueColor)"/></g><defs><linearGradient id="b" x1="21.413" y1="5.006" x2="2.944" y2="27.837" gradientUnits="userSpaceOnUse"><stop stop-color="#2AFFA9"/><stop offset="1" stop-color="#03B8FD"/></linearGradient><clipPath id="a"><path fill="#fff" d="M0 0h138v30H0z"/></clipPath></defs></svg>