<svg width="138" height="30" viewBox="0 0 138 30" fill="none" xmlns="http://www.w3.org/2000/svg">
<g clip-path="url(#clip0_2311_327)">
<path d="M12.7709 0C5.7522 0 0 5.70681 0 12.6702C0 15.8639 1.16099 18.7435 3.11358 20.9948C3.58853 20.8377 4.11625 20.733 4.64398 20.733C7.07151 20.733 9.02409 22.5654 9.28795 24.8691C10.3962 25.1832 11.5572 25.3403 12.7709 25.3403C19.8424 25.3403 25.5419 19.6335 25.5419 12.6702C25.5946 5.70681 19.8424 0 12.7709 0ZM12.7709 19.4241C9.02409 19.4241 6.01606 16.4398 6.01606 12.7225C6.01606 9.00524 9.02409 6.02094 12.7709 6.02094C16.5178 6.02094 19.5258 9.00524 19.5258 12.7225C19.5258 16.3874 16.5178 19.4241 12.7709 19.4241Z" fill="#1565C0"/>
<path d="M3.11358 20.9948C1.31931 21.623 0 23.3508 0 25.3927C0 27.9581 2.1109 30 4.64398 30C7.22983 30 9.28795 27.9057 9.28795 25.3927C9.28795 25.2356 9.28795 25.0785 9.28795 24.9215C6.86042 24.2408 4.74952 22.8272 3.11358 20.9948Z" fill="url(#paint0_linear_2311_327)"/>
<path d="M40.5821 19.5811V24.9738H36.1492V5.60205H44.54C48.9729 5.60205 51.506 8.69106 51.506 12.4607C51.506 16.4397 48.7618 19.5811 44.1706 19.5811H40.5821ZM40.5821 9.63346V15.602H44.065C45.9649 15.602 47.0731 14.3979 47.0731 12.6178C47.0731 10.8377 45.9648 9.68582 43.9067 9.68582H40.5821V9.63346Z" fill="var(--blueColor)"/>
<path d="M53.7751 25.0261V10.4711H57.7331V12.4607C58.7358 11.1518 60.1606 10.2617 62.0076 10.2617V14.2408C59.0524 14.2408 57.7859 15.8638 57.7859 18.3769V25.0261H53.7751Z" fill="var(--blueColor)"/>
<path d="M78.631 17.801C78.631 21.9895 75.2535 25.3402 70.7679 25.3402C66.2822 25.3402 62.9048 22.0418 62.9048 17.801C62.9048 13.5601 66.2822 10.2094 70.7679 10.2094C75.2535 10.2094 78.631 13.5601 78.631 17.801ZM66.8099 17.801C66.8099 20.1046 68.4459 21.8324 70.6623 21.8324C72.8788 21.8324 74.673 20.1046 74.673 17.801C74.673 15.445 72.9843 13.7696 70.7151 13.7696C68.4459 13.7696 66.8099 15.445 66.8099 17.801Z" fill="var(--blueColor)"/>
<path d="M84.4887 11.9371C85.2275 11.0994 86.7051 10.2094 88.7632 10.2094C92.1934 10.2094 94.4099 12.5654 94.4099 16.0732V24.9737H90.452V16.7539C90.452 15.0261 89.5021 13.8219 87.7606 13.8219C85.808 13.8219 84.5414 15.0261 84.5414 17.068V24.9737H80.5835V10.4711H84.4887V11.9371Z" fill="var(--blueColor)"/>
<path d="M105.123 24.5026C103.751 28.3769 102.009 30 98.3679 30H96.943V26.4398H98.1568C99.4761 26.4398 100.32 25.7068 100.848 24.555L95.4126 10.4188H99.951L102.959 19.3717L105.914 10.4188H110.031L105.123 24.5026Z" fill="var(--blueColor)"/>
<path d="M109.82 25.0261V20.9424H113.936V25.0261H109.82Z" fill="var(--blueColor)"/>
<path d="M116.258 9.21462V5.60205H120.216V9.21462H116.258ZM116.258 25.0261V10.4712H120.216V24.9738H116.258V25.0261Z" fill="var(--blueColor)"/>
<path d="M138 17.801C138 21.9895 134.623 25.3402 130.137 25.3402C125.651 25.3402 122.274 22.0418 122.274 17.801C122.274 13.5601 125.651 10.2094 130.137 10.2094C134.623 10.2094 138 13.5601 138 17.801ZM126.179 17.801C126.179 20.1046 127.815 21.8324 130.031 21.8324C132.248 21.8324 134.042 20.1046 134.042 17.801C134.042 15.445 132.353 13.7696 130.084 13.7696C127.815 13.7696 126.179 15.445 126.179 17.801Z" fill="var(--blueColor)"/>
</g>
<defs>
<linearGradient id="paint0_linear_2311_327" x1="21.413" y1="5.00627" x2="2.94388" y2="27.8372" gradientUnits="userSpaceOnUse">
<stop stop-color="#2AFFA9"/>
<stop offset="1" stop-color="#03B8FD"/>
</linearGradient>
<clipPath id="clip0_2311_327">
<rect width="138" height="30" fill="white"/>
</clipPath>
</defs>
</svg>
