<svg width="660" height="235" viewBox="0 0 660 235" fill="none" xmlns="http://www.w3.org/2000/svg">
<path d="M0 191.75V146.9L103.009 0H165.27V143.65H192V191.75H165.27V234H109.528V191.75H0ZM113.44 61.1L58.6758 143.65H113.44V61.1Z" fill="#272557"/>
<path d="M468 191.75V146.9L571.009 0H633.27V143.65H660V191.75H633.27V234H577.528V191.75H468ZM581.44 61.1L526.676 143.65H581.44V61.1Z" fill="#272557"/>
<path d="M329.97 0C265.685 0 213 52.779 213 117.179C213 146.716 223.634 173.348 241.517 194.169C245.868 192.716 250.701 191.748 255.535 191.748C277.768 191.748 295.652 208.695 298.069 230C308.219 232.905 318.853 234.358 329.97 234.358C394.738 234.358 446.94 181.579 446.94 117.179C447.423 52.779 394.738 0 329.97 0ZM329.97 179.642C295.652 179.642 268.102 152.042 268.102 117.663C268.102 83.2843 295.652 55.6843 329.97 55.6843C364.288 55.6843 391.838 83.2843 391.838 117.663C391.838 151.558 364.288 179.642 329.97 179.642Z" fill="#1565C0"/>
</svg>
